Coordinates
version=1
nRows=19
nColumns=24
inDegrees=yes

Units are S.I. units (second, meters, Newtons, ...)
Angles are in degrees.

endheader
time	pelvis_tilt	pelvis_list	pelvis_rotation	pelvis_tx	pelvis_ty	pelvis_tz	hip_flexion_r	hip_adduction_r	hip_rotation_r	knee_angle_r	ankle_angle_r	subtalar_angle_r	mtp_angle_r	hip_flexion_l	hip_adduction_l	hip_rotation_l	knee_angle_l	ankle_angle_l	subtalar_angle_l	mtp_angle_l	lumbar_extension	lumbar_bending	lumbar_rotation
      1.52000000	     72.96973878	      0.44701445	     -1.23277676	      0.54823312	      0.96622338	     -0.29749397	     -2.80294205	    -18.05509389	     -7.37653546	    -65.66651558	    -28.50243721	      0.00000000	      0.00000000	      9.84550544	     -6.36630031	     17.43742360	     -5.08816165	    -48.61240776	      0.00000000	      0.00000000	      0.00000000	      0.00000000	      0.00000000
      1.53000000	     72.97501998	      0.45243699	     -1.23026718	      0.54821341	      0.96623053	     -0.29749323	     -2.81141658	    -18.06167647	     -7.38653965	    -65.66624223	    -28.49935247	      0.00000000	      0.00000000	      9.84050633	     -6.36678760	     17.44348883	     -5.07342714	    -48.64870539	      0.00000000	      0.00000000	      0.00000000	      0.00000000	      0.00000000
      1.54000000	     72.98115935	      0.45770116	     -1.22630151	      0.54819631	      0.96622559	     -0.29748981	     -2.82314601	    -18.06774791	     -7.39668876	    -65.66340899	    -28.49755563	      0.00000000	      0.00000000	      9.83551537	     -6.36721102	     17.44819730	     -5.05893618	    -48.68324014	      0.00000000	      0.00000000	      0.00000000	      0.00000000	      0.00000000
      1.55000000	     72.98662739	      0.46225342	     -1.22138013	      0.54818501	      0.96621617	     -0.29748859	     -2.83662966	    -18.07363510	     -7.40577539	    -65.65773535	    -28.49701015	      0.00000000	      0.00000000	      9.83091959	     -6.36763614	     17.45286401	     -5.04478822	    -48.71644275	      0.00000000	      0.00000000	      0.00000000	      0.00000000	      0.00000000
      1.56000000	     72.99077909	      0.46585715	     -1.21648933	      0.54817534	      0.96621553	     -0.29748774	     -2.85036377	    -18.07927697	     -7.41322615	    -65.64936298	    -28.49758229	      0.00000000	      0.00000000	      9.82756237	     -6.36820207	     17.45868411	     -5.03059292	    -48.74908681	      0.00000000	      0.00000000	      0.00000000	      0.00000000	      0.00000000
      1.57000000	     72.99375507	      0.46859777	     -1.21257061	      0.54816648	      0.96622460	     -0.29748640	     -2.86350041	    -18.08400355	     -7.41904779	    -65.63898705	    -28.49906336	      0.00000000	      0.00000000	      9.82585258	     -6.36887685	     17.46632309	     -5.01594085	    -48.78183617	      0.00000000	      0.00000000	      0.00000000	      0.00000000	      0.00000000
      1.58000000	     72.99624812	      0.47073218	     -1.20967709	      0.54815978	      0.96623485	     -0.29748929	     -2.87628602	    -18.08678584	     -7.42343273	    -65.62774352	    -28.50119983	      0.00000000	      0.00000000	      9.82493422	     -6.36945359	     17.47574479	     -5.00090759	    -48.81473961	      0.00000000	      0.00000000	      0.00000000	      0.00000000	      0.00000000
      1.59000000	     72.99951505	      0.47242194	     -1.20667121	      0.54815048	      0.96623838	     -0.29749674	     -2.89018735	    -18.08694996	     -7.42651716	    -65.61684904	    -28.50368498	      0.00000000	      0.00000000	      9.82261488	     -6.36981454	     17.48637503	     -4.98624493	    -48.84681950	      0.00000000	      0.00000000	      0.00000000	      0.00000000	      0.00000000
      1.60000000	     73.00558112	      0.47363304	     -1.20207882	      0.54813249	      0.96623613	     -0.29750180	     -2.90758955	    -18.08462554	     -7.42866109	    -65.60719252	    -28.50611331	      0.00000000	      0.00000000	      9.81602621	     -6.37011147	     17.49748169	     -4.97320312	    -48.87585984	      0.00000000	      0.00000000	      0.00000000	      0.00000000	      0.00000000
      1.61000000	     73.01714317	      0.47419466	     -1.19530798	      0.54810808	      0.96624102	     -0.29750152	     -2.93113263	    -18.08066513	     -7.43082456	    -65.59909845	    -28.50801324	      0.00000000	      0.00000000	      9.80245055	     -6.37068725	     17.50848324	     -4.96316416	    -48.89848671	      0.00000000	      0.00000000	      0.00000000	      0.00000000	      0.00000000
      1.62000000	     73.03674574	      0.47380744	     -1.18705145	      0.54808277	      0.96626329	     -0.29750077	     -2.96296336	    -18.07631588	     -7.43444062	    -65.59235134	    -28.50903902	      0.00000000	      0.00000000	      9.77977767	     -6.37179701	     17.51897940	     -4.95730521	    -48.91064989	      0.00000000	      0.00000000	      0.00000000	      0.00000000	      0.00000000
      1.63000000	     73.06563670	      0.47220030	     -1.17867871	      0.54805347	      0.96629351	     -0.29750016	     -3.00407079	    -18.07267233	     -7.44078830	    -65.58648424	    -28.50922391	      0.00000000	      0.00000000	      9.74657893	     -6.37324111	     17.52859920	     -4.95640724	    -48.90855394	      0.00000000	      0.00000000	      0.00000000	      0.00000000	      0.00000000
      1.64000000	     73.10311537	      0.46964535	     -1.17130410	      0.54801508	      0.96631511	     -0.29749586	     -3.05373223	    -18.06999572	     -7.45033325	    -65.58120807	    -28.50905908	      0.00000000	      0.00000000	      9.70213011	     -6.37418964	     17.53691570	     -4.96084125	    -48.88990364	      0.00000000	      0.00000000	      0.00000000	      0.00000000	      0.00000000
      1.65000000	     73.14647863	      0.46705768	     -1.16521413	      0.54797488	      0.96632706	     -0.29749084	     -3.10939279	    -18.06774918	     -7.46234192	    -65.57667051	    -28.50922360	      0.00000000	      0.00000000	      9.64672779	     -6.37346289	     17.54354378	     -4.97066235	    -48.85510341	      0.00000000	      0.00000000	      0.00000000	      0.00000000	      0.00000000
      1.66000000	     73.19158558	      0.46520993	     -1.15994157	      0.54794498	      0.96634239	     -0.29748771	     -3.16706353	    -18.06565727	     -7.47494713	    -65.57325241	    -28.51007232	      0.00000000	      0.00000000	      9.58251676	     -6.37016690	     17.54836491	     -4.98564749	    -48.80791997	      0.00000000	      0.00000000	      0.00000000	      0.00000000	      0.00000000
      1.67000000	     73.23423948	      0.46433415	     -1.15515535	      0.54792570	      0.96637019	     -0.29748315	     -3.22173803	    -18.06431952	     -7.48605528	    -65.57106409	    -28.51125762	      0.00000000	      0.00000000	      9.51445794	     -6.36422893	     17.55179410	     -5.00527570	    -48.75518020	      0.00000000	      0.00000000	      0.00000000	      0.00000000	      0.00000000
      1.68000000	     73.27109178	      0.46458592	     -1.15154682	      0.54790572	      0.96640324	     -0.29748106	     -3.26784384	    -18.06455672	     -7.49462172	    -65.56973362	    -28.51182625	      0.00000000	      0.00000000	      9.45013306	     -6.35635006	     17.55507951	     -5.02904125	    -48.70533892	      0.00000000	      0.00000000	      0.00000000	      0.00000000	      0.00000000
      1.69000000	     73.29866032	      0.46604365	     -1.15016908	      0.54787715	      0.96642214	     -0.29748949	     -3.29997896	    -18.06670274	     -7.50093548	    -65.56876654	    -28.51075627	      0.00000000	      0.00000000	      9.39741899	     -6.34733662	     17.56073035	     -5.05741581	    -48.66608253	      0.00000000	      0.00000000	      0.00000000	      0.00000000	      0.00000000
      1.70000000	     73.31197971	      0.46824628	     -1.15076616	      0.54784779	      0.96641545	     -0.29750319	     -3.31342978	    -18.07057896	     -7.50575424	    -65.56812139	    -28.50754719	      0.00000000	      0.00000000	      9.36130699	     -6.33737855	     17.57317536	     -5.09289386	    -48.64135534	      0.00000000	      0.00000000	      0.00000000	      0.00000000	      0.00000000
